<svg fill="none" height="140" viewBox="0 0 113 140" width="113" xmlns="http://www.w3.org/2000/svg" xmlns:xlink="http://www.w3.org/1999/xlink"><clipPath id="a"><path d="m47 9h37v56h-37z"/></clipPath><path d="m19.4293 127.443c0-4.319 0-8.637-.0288-12.955 0-.667-.0289-1.942.6899-1.971 1.2075-.029 2.5333 0 3.712-.174 1.1788-.174 2.2786-1.13 3.4286-1.391s2.0625-.84 3.1837-1.246c1.1213-.406 2.03-1.275 3.1225-1.71 1.3512-.522 2.7745.008 4.0682-.63 1.84-.927 2.8973-2.653 4.5361-3.87 2.5587-1.855 5.2192-3.282 7.3755-5.5718 1.8112-1.9418 3.1506-4.964 4.5306-7.2246.92-1.507 2.6699-1.4256 3.2736-3.1065.0863-.2318.1438-.4347.4025-.3767.23.0289.1438.2608.1725.4057.23 1.0723 1.223 1.536 1.5392 2.5793.2875.9274 1.1207 1.2173 1.4082 2.1447.4025 1.2462.1597 3.1331.7347 4.2924.9487 1.9417 3.3616 4.5995 4.6553 6.3675 1.495 2.029 4.1041 3.425 6.0591 4.99 1.5237 1.217 1.1563.898 2.9388 1.71 1.4087.638 3.3644.696 4.8307 1.014 1.4662.319.92.89 2.4149.919.6038 0 1.6388.791 1.5238.472-.4888-1.536-1.2363-2.927-2.3575-4.086-1.265-1.304-2.7887-2.087-4.3699-2.869-2.3575-1.13-4.3125-2.782-5.98-4.84-1.1499-1.3911-2.2137-2.8402-3.1049-4.4052-.8625-1.536-1.61-3.13-2.3-4.753-.6612-1.565-1.1787-3.159-1.6099-4.7529-.3163-1.1593-.5175-2.3765-.7188-3.5937-.23-1.652-.4025-3.3329-.3737-4.9848.0287-1.7679.1725-3.5358.4887-5.2747.4888-2.6373 1.2075-5.2456 2.5587-7.5931.6325-1.0723 1.2363-2.1736 2.2137-3.0141.1438-.1449.1438-.2318.4025-.0579 1.495 1.0433 2.7887 2.3185 3.9387 3.7096 1.6963 2.0287 3.105 4.2023 4.1112 6.6947.575 1.4491 1.0925 2.9271 1.495 4.4631.6037-.4057.4887-1.1592.69-1.7388.69-2.0287 1.495-3.9995 2.5874-5.8543 1.3513-2.2606 2.9613-4.2603 4.9162-5.9992.575-.4926 1.1788-.9563 1.725-1.478.2875-.2608.46-.2898.7475 0 1.61 1.536 2.7887 3.3039 3.6512 5.3905.8625 2.1447.9775 4.3762.7475 6.5788-.23 1.9418-1.15 3.6517-2.3862 5.2167-1.9838 2.5214-4.5712 4.3472-6.9287 6.4339-1.61 1.4201-3.1049 2.9561-4.0249 4.8978-.8913 1.8259-1.1213 3.8256-1.0638 5.8543.0575 1.6809.4025 3.3329 1.0063 4.8693.6325 1.536 1.4662 2.956 2.4149 4.318 1.2938 1.797 2.9612 3.188 4.715 4.463.7475.551.7187.522-.0575 1.014-.8913.58-1.7537 1.218-2.6162 1.797-.23.145-.2588.377-.23.638.0287.637.0287 1.246.0287 1.884-.3162 0-.6325.029-.92.029-20.9584 0-41.8881 0-62.8466 0-.2012 0-.4312 0-.6325 0-.2012 0-.23.115-.23.26 0 1.218-.0287 2.406-.0575 3.623 0 .377.115.464.46.435.1725-.029.345 0 .4888 0 14.5185 0 29.0371.029 43.5269-.029 1.9837 0 3.0187 1.014 3.8236 2.579 1.1788 2.232 1.38 4.666 1.0925 7.072-.2587 1.912-.7762 3.825-2.2424 5.274-.6613.638-1.4375 1.044-2.3863 1.044-14.921 0-29.842 0-44.7631 0 0-.493.0288-1.015-.0287-1.507-.0863-.725.1725-.87.8625-.87 14.346.029 28.6921.029 43.0669.029h.6325c.1725 0 .2587-.087.2874-.261.115-1.246.115-2.492 0-3.738-.1437-.464-.5174-.232-.7762-.232-14.4323 0-28.8646-.029-43.2681 0-.6038 0-.92-.087-.805-.783.0862-.232.0862-.434-.1725-.521zm22.7122-1.131h21.7634c.575 0 .805-.116.7762-.753-.0575-.812-.0575-1.652 0-2.464.0575-.724-.1725-.927-.8912-.927-14.4323.058-28.8646.058-43.2681.058-.115 0-.23 0-.345 0-.3738-.058-.4888.116-.4888.493.0288.927.0288 1.883-.0287 2.811-.0288.637.1437.782.7762.782zm31.3083-54.5717c.0287-1.9418-1.5525-3.3909-3.2775-3.3909-1.9837.029-3.3062 1.652-3.3062 3.3619.0288 1.7099 1.15 3.2459 3.3062 3.2749 1.8112.0579 3.2775-1.4491 3.2775-3.2459zm10.3211-.029c-.2875 1.8548 1.7249 3.3039 3.1049 3.3328 1.6675 0 3.335-1.478 3.3062-3.3328-.0287-1.9708-1.6674-3.2749-3.1912-3.3329-1.5812-.0869-3.4787 1.4201-3.2199 3.3329z" fill="#0066ab"/><path d="m59.418 67.2305c-.5167-1.2417-.8038-2.4546-1.2344-3.6385-.5168-1.4439-1.1771-2.8011-1.8661-4.1294-.89-1.7038-1.9235-3.3786-3.1866-4.8513-1.3781-1.6171-2.7561-3.2343-4.3637-4.6203-1.0623-.9241-2.0096-1.9926-3.0719-2.8877-2.0096-1.7327-3.9043-3.5808-5.6843-5.5733-1.5215-1.7037-2.7847-3.5807-3.6172-5.7176-.5168-1.3284-.8039-2.7433-1.0048-4.2161-.201-1.5016-.0575-2.9454.1148-4.4181.1723-1.4439.6603-2.8011 1.2345-4.1583.6316-1.5305 1.4928-2.9166 2.4402-4.2738.6603-.924 1.4928-1.7326 2.2967-2.5412.2584-.2598.5454-.1443.8325.0578 2.5551 1.9059 4.9666 3.985 7.2059 6.324 2.2392 2.3391 4.1627 4.9091 5.6556 7.7679.8325 1.5883 1.5215 3.2631 2.1531 4.938.689 1.8481 1.2632 3.754 1.8661 5.631.2009.6064.5167 1.2706.4593 1.9925.4593-.693.5168-1.5016.7751-2.2524.4019-1.1551.689-2.339 1.0909-3.4652.4594-1.3572.9474-2.6856 1.5216-3.985 1.0622-2.5123 2.3541-4.8514 3.9905-7.046 1.579-2.108 3.3302-4.0717 5.2824-5.862 1.5215-1.3861 3.1005-2.7145 4.7656-3.9273.3732-.2599.5742-.1733.8038.0866 1.78 1.877 3.4451 3.8407 4.536 6.2086.6029 1.3283 1.0622 2.7144 1.3493 4.1871.2584 1.415.2871 2.83.1722 4.2161-.2009 2.1946-.8612 4.2449-2.0957 6.1507-1.9809 3.061-4.6795 5.4578-7.1197 8.0567-1.8374 1.9636-3.3589 4.1583-4.3924 6.6417-.0287.0289-.0574.1155-.0574.1155.7177.6642-.2297.953-.3732 1.415-.1723.5486-.5742 1.0396-.9187 1.5016-.1149.1444-.2584.0577-.4881-.0289-1.4928-.7219-3.0144-1.415-4.622-1.9059-.8613-.2599-1.8087-.3465-2.6412-.7508-.2584-.1155-.4307-.0577-.5168.3466-.5454 2.801.8039 4.6203 3.0144 5.9486.5455.3176.5168.5198.1436.9529-1.8948 2.2813-3.2154 4.9091-4.4499 7.7102zm19.3783-36.385c.2871-2.6855-2.4402-5.2844-5.1388-5.2556-2.9857.0578-5.225 2.4835-5.1963 5.1979.0287 2.8588 2.1532 5.1978 5.225 5.2556 2.4976.0577 5.3398-2.2813 5.1101-5.1979zm-32.9574-5.1978c-2.9857-.0866-5.1676 2.4545-5.1963 5.0823-.0287 3.0321 2.2393 5.2268 5.1102 5.3423 2.7847.1155 5.2249-2.4546 5.2536-5.2268 0-2.801-2.5263-5.3711-5.1675-5.1978z" fill="#0066ab"/><path d="m12.3288 101.013c1.6364.201 3.3302-.173 5.024-.345 1.6364-.172 3.3015-.574 4.9091-1.0334 3.6173-1.0048 6.8614-2.6411 9.8758-4.823 1.7799-1.2919 3.3589-2.8421 4.7943-4.4785 1.3493-1.5216 2.4976-3.2154 3.5312-4.9666 1.0335-1.7512 1.9808-3.5599 2.756-5.4259.689-1.6364 1.3493-3.3302 1.866-5.0527.4307-1.4642.8039-2.9283 1.1771-4.3924.5167-2.0096.488-4.0192.5742-6.0575.0287-.689.488-.4881.7177-.3732 1.0622.5454 1.866 1.4067 2.3541 2.4976.9761 2.1244 1.0622 4.3924.8038 6.6317-.1722 1.3493-.6029 2.6986-1.0048 4.0192-.3732 1.2344-.7464 2.4689-1.2345 3.646-.7464 1.7799-1.4928 3.5598-2.4402 5.2823-.9187 1.6364-1.866 3.2441-2.9857 4.7656-.689.9474-1.4354 1.8087-2.1818 2.6987-1.579 1.9521-3.4738 3.5598-5.4547 5.0527-1.8373 1.4064-3.8469 2.5264-5.9713 3.5314-1.3206.631-2.6699 1.148-4.0479 1.607-1.2632.402-2.5264.718-3.8183 1.005-1.378.287-2.7847.402-4.134.718-.1436.029-.2871.057-.4306.057-1.8087-.057-3.6173.345-5.3972.201-1.4068-.115-2.81348-.115-4.19149-.172-.48805-.029-.51676-.23-.25838-.632.80384-1.205 1.6938-2.325 2.41152-3.588.14354-.23.3445-.431.71775-.402.6603.057 1.3206.029 2.0383.029z" fill="#0066ab"/><g fill="#fff"><path d="m112.4 113.6c-.9.1-1.8.1-2.8.2-.2 0-.4 0-.5 0-1.9 0-3.9.1-5.8 0-2-.1-4.1-.4-6.1-.7-2.7-.4-5.3-1.2-7.7-2.4-1.4-.7-2.7-1.6-3.9-2.5-1.5-1.1-2.7-2.5-3.7-4.1-1.1-1.7-2-3.6-2.5-5.6-.6-2.6-.6-5.3.3-7.8.5-1.4 1.2-2.6 2.3-3.6 1.3-1.3 2.6-2.4 4-3.6 1.5-1.4 3.2-2.8 4.6-4.3 1.6-1.7 2.6-3.7 2.9-6 .4-3.5-.4-6.7-2.5-9.6-.6-.8-1.4-1.6-2.1-2.4-5.4 4-8.8 9.1-10.3 15.6-1.5-6.2-4.7-11.3-9.9-15.3-.6.8-1.3 1.7-1.9 2.6-1.5 2.4-2.4 5-2.9 7.7-.2 1-.3 2.1-.4 3.1-.1 1.1-.1 2.3-.1 3.4-.1 2.6.4 5.2 1 7.7.7 2.8 1.8 5.5 3.1 8.1.6 1.2 1.5 2.3 2.1 3.5 1 1.8 2.4 3.2 3.9 4.6 1.3 1.2 2.8 2.1 4.5 2.8 2.4 1 4.4 2.6 5.5 5 .3.7.6 1.5.9 2.4-.6 0-1.1 0-1.5 0-3.5-.3-6.9-1.1-10-2.9-1.6-.9-3-2-4.4-3.1-2.7-2.2-4.8-4.9-6.4-7.9-1.8-3.2-3.1-6.7-4-10.3-.1-.5-.2-1-.3-1.6-.1.1-.2.2-.2.3-1.4 3.3-3.3 6.3-5.5 9.1-1.8 2.3-3.8 4.5-6.1 6.3-1.4 1.1-2.7 2.2-4.2 3.2-2.1 1.3-4.3 2.5-6.5 3.6-2.7 1.4-5.7 2.3-8.7 2.9-1.8.4-3.6.7-5.4.9-1.9.3-3.8.4-5.7.6h-.1c-2.5 0-5 .1-7.5.1-1.8 0-3.6-.1-5.4-.2-.8 0-1.6-.2-2.5-.2l.4-.4c2.2-2.2 4.2-4.6 6.1-7.1.2-.3.5-.3.8-.3 2.4.1 4.8.3 7.2.2 3.3-.1 6.5-.6 9.7-1.5 2.4-.7 4.7-1.5 6.9-2.8 1.6-.9 3.3-1.9 4.8-3.1 1.6-1.3 3.1-2.7 4.5-4.2 2.8-3 5-6.5 6.8-10.2 1.5-3.2 2.7-6.5 3.4-10 .4-1.9.4-3.8 0-5.7-.3-1.2-.7-2.4-1.5-3.3-.5-.5-1.2-.8-1.8-1.3-.1.3-.1.4-.1.5 0 4.9-1.3 9.5-3.1 13.9-.7 1.7-1.4 3.3-2.2 4.9-1.2 2.4-2.7 4.6-4.3 6.7-2 2.5-4.4 4.7-7.2 6.4-1 .7-2.2 1.2-3.3 1.8-2.5 1.4-5.2 2.1-7.9 2.6-1.5.3-3.1.4-4.6.5s-3 0-4.5 0c.3-.3.6-.7.8-1.1 1.5-2.3 3.1-4.5 4.6-6.8.9-1.4 1.6-2.9 2.4-4.4 1-2.5 2.1-5.5 2.9-8.5.6-2.1 1.1-4.3 1.5-6.5.3-1.4.5-2.8.6-4.3.2-1.7.4-3.4.6-5.1.1-.7.1-1.4.1-2.1.1-1.9.2-3.8.2-5.7 0-.6.1-1.3.1-1.9 0-5.9.1-11.7.1-17.6 0-1.9.1-3.8.4-5.6.5-3.9 1.4-7.6 3-11.2 1.2-2.6 2.6-4.9 4.4-7.1.5-.7 1.1-1.3 1.6-2-4-2.7-5.5-6.2-4.3-10 1.3.7 2.7 1.3 4 2 1.9 1 3.7 2 5.6 3 .3.2.4.1.7 0 2.9-2.1 6.1-3.6 9.5-4.6 1.7-.5 3.6-.8 5.3-1.2.6.1.9 0 1.3-.1h8.2s.1.1.1.1c.8.1 1.7.2 2.5.4 2.7.5 5.4 1.3 7.9 2.6 1.8.9 3.5 2.1 5.3 3.1.2.1.5.1.6 0 2.1-1.1 4.1-2.2 6.2-3.3 1.2-.6 2.4-1.2 3.6-1.8.5.7.7 2.7.4 4.1-.7 2.9-2.7 4.7-5.2 6.3 1.8 2.1 3.3 4.4 4.3 7 1.3 3.1 2 6.4 2.1 9.8 0 1.5-.2 3.1-.4 4.6-.2 1.8-.8 3.6-1.6 5.2-1.1 2.2-2.6 4.2-4.5 5.8-1.9 1.7-3.9 3-6.1 4.2-2.1 1.1-4.2 2-6.3 3-.8.4-1.7.7-2.8 1.2.4-.8.6-1.5.9-2.1 1-2 2.4-3.7 3.9-5.3 1.3-1.4 2.7-2.8 4.1-4.2 1.3-1.4 2.6-2.9 3.4-4.6 1.7-3.2 2-6.7 1.2-10.2-.9-3.8-3-6.8-5.8-9.4-.1-.1-.5-.1-.6 0-1.5 1.2-3.1 2.4-4.5 3.7s-2.7 2.7-4 4.1c-1.6 1.7-2.9 3.6-4 5.6-2 3.6-3.4 7.5-4.4 11.5-.1.5-.3 1.1-.5 1.8-.4-1.6-.8-3-1.2-4.4-1.1-3.2-2.3-6.4-3.9-9.3-1.4-2.4-3-4.6-4.9-6.6-2.3-2.4-4.8-4.6-7.5-6.5-.3-.2-.5-.2-.8.1-1.8 1.8-3.3 3.8-4.3 6.1-1.4 3-2 6.2-1.6 9.5.3 2.5 1.2 4.8 2.5 6.8 1.6 2.4 3.5 4.5 5.7 6.4 2 1.8 4 3.7 6 5.6 1.3 1.3 2.6 2.6 3.7 4.1 1.1 1.4 2 2.9 2.9 4.4 1.2 2 2 4.2 2.7 6.4.1.2.2.4.2.7.1.2.1.4.2.7 1.3-3 2.8-5.7 4.8-8.2-.2-.2-.4-.3-.5-.4-.8-.7-1.7-1.3-2.4-2.1-.9-1.1-1-2.5-.7-3.9.1-.3.2-.4.6-.3 2.6.5 5 1.4 7.3 2.7.1.1.3 0 .5 0 .7-.3 1.4-.7 2.1-1 1.8-.8 3.7-1.2 5.7-1.4 1.7-.2 3.5-.1 5.2.2 2.2.3 4.3 1 6.2 2.1.1.1.3.1.5 0 2.1-1.1 4.4-1.9 6.7-2.4.9-.2.9-.2 1.1.7.4 1.6-.4 3.3-1.6 4.4-.5.4-1 .8-1.5 1.2.1.1.1.1.1.2 1.6 1.7 2.8 3.6 3.8 5.7 1.5 3.1 2 6.4 2.2 9.8 0 1.1.1 2.2.1 3.3.1 2.2.1 4.4.2 6.6.1 1.1.1 2.3.2 3.4.2 2 .4 3.9.7 5.9.4 1.9.8 3.9 1.5 5.7.5 1.5 1.2 2.9 2 4.3 1 1.7 2 3.4 3.3 5 1.4 1.7 3 3.3 4.6 4.9.1.1.3.2.4.2.1-.5.1-.3.1-.2zm-65.1-101.8c4.9 3.9 9 8.5 12.3 13.9 3.2-5.3 7.3-9.8 12.1-13.7-3.4-1.9-6.9-2.8-10.6-3.1-4.8-.3-9.3.6-13.8 2.9zm31.1 52.8c1.3-2.4 2.9-4.4 4.9-6.3-3.3-.9-6.5-1-9.7.1 1.9 1.8 3.5 3.8 4.8 6.2z"/><path d="m64.6004 121.9v4.2c-15.1 0-30.1 0-45.2 0 0-1.4 0-2.8 0-4.2z"/><path d="m19.3008 132.5c0-1.4 0-2.8 0-4.2h45.2v4.2c-15 0-30 0-45.2 0z"/><path d="m89.9996 71.6998c.1 1.7-1.3999 3.3-3.2999 3.3-1.8 0-3.1001-1.3-3.2001-3.1-.2-2.1 1.6001-3.6 3.3001-3.6s3.3999 1.5 3.1999 3.4z"/><path d="m73.1998 71.6001c.1 1.9-1.4 3.3-3.2 3.3s-3.4-1.5-3.3-3.4c.1-1.6 1.4-3.3 3.4-3.2 1.6 0 3.3 1.5 3.1 3.3z"/><path d="m78.7995 30.4998c.2 2.8-2.2 5.3-5.2 5.3-2.9 0-5-2.2-5.2-4.9-.2-3.3 2.4-5.5 5-5.6 2.8-.1 5.6 2.4 5.4 5.2z"/><path d="m50.8004 30.5999c.2 2.9-2.4 5.2-5.1 5.2-3 0-5.2-2.2-5.3-5.2 0-3 2.3-5.4 5.4-5.3 2.6.1 5.2 2.2 5 5.3z"/><path d="m19.4004 139.1c0-1.4 0-2.8 0-4.3h.6991 44.4421c1.0986 0 1.8975-.6 2.5966-1.5 1.0986-1.6 1.5979-3.3 1.7977-5.2.2996-2.5-.1998-4.8-1.3982-6.9-.6991-1.4-1.7977-2.1-3.4955-2.1-14.581 0-29.2618 0-43.8429 0-.2996 0-.4993 0-.7989 0 0-1.4 0-2.7 0-4.1h.5992 67.9116c1.5979 0 3.0959.7 4.2944 1.8 2.0972 1.9 3.0959 4.3 3.6952 6.9.6991 3.4.3994 6.7-1.0986 9.9-.5992 1.3-1.2983 2.4-2.1971 3.4-1.0986 1.1-2.4968 1.9-4.1946 2.1-.5992 0-1.0986.1-1.6978.1-22.271 0-44.4421 0-66.7131 0-.0999-.1-.2996-.1-.5992-.1z"/></g><g clip-path="url(#a)" fill="#0066ab"><path d="m47 11.9704c1.6523-.7497 3.2456-1.4418 4.9274-1.8743 1.5048-.40376 3.0391-.66328 4.5734-.89397 1.3868-.23069 2.7735-.23069 4.1603-.17302 1.2097.02884 2.3899.25953 3.5702.46138 1.0032.14418 1.9473.43254 2.921.66321 1.5933.3749 3.0686 1.0958 4.5439 1.759.2065.0865.236.2884-.0295.5479-1.1212 1.0958-2.3605 2.0186-3.5112 3.0855-2.3899 2.2781-4.5734 4.7292-6.4912 7.4109-.5901.8363-1.2393 1.6437-1.7113 2.5664-.0591.0866-.2361.4903-.5607 0-1.5933-2.3645-3.2751-4.7003-5.2519-6.8341-1.6819-1.8456-3.5112-3.5757-5.3701-5.2482-.5606-.4614-1.1212-.9228-1.7703-1.4707z"/><path d="m78.3617 64.7262c-1.3278-2.4799-3.0981-4.412-5.016-6.3152 3.4227-1.1823 6.7273-1.2111 10.1794-.0288-2.1244 1.8167-3.7472 3.9506-5.1634 6.344z"/></g></svg>